<?xml version="1.0" encoding="utf-8"?>
<!-- Generator: Adobe Illustrator 18.1.1, SVG Export Plug-In . SVG Version: 6.00 Build 0)  -->
<svg version="1.1" id="レイヤー_1" xmlns="http://www.w3.org/2000/svg" xmlns:xlink="http://www.w3.org/1999/xlink" x="0px"
	 y="0px" viewBox="0 0 64 64" enable-background="new 0 0 64 64" xml:space="preserve">
<path d="M64,7.8C63.9,3.5,60.3,0,56,0H8C3.6,0,0,3.6,0,8v48c0,4.4,3.6,8,8,8h48c4.4,0,8-3.6,8-8V42V24v-2V8C64,7.9,64,7.8,64,7.8z
	 M62,24H28c-2.2,0-4,1.8-4,4v14h38v2H8c-2.2,0-4,1.8-4,4v12.5c-1.2-1.1-2-2.7-2-4.5V8c0-3.3,2.7-6,6-6h48c1.8,0,3.4,0.8,4.5,2H48
	c-2.2,0-4,1.8-4,4v14h18V24z"/>
</svg>
